HIERARCHY
ROOT Hips
{
	OFFSET -3.536723 1.218618 0.195575
	CHANNELS 6 Xposition Yposition Zposition Zrotation Yrotation Xrotation 
	JOINT Spine
	{
		OFFSET -0.000002 8.340420 -2.714018
		CHANNELS 3 Zrotation Yrotation Xrotation
		JOINT Spine1
		{
			OFFSET -0.000014 11.909965 -2.100098
			CHANNELS 3 Zrotation Yrotation Xrotation
			JOINT Spine2
			{
				OFFSET 0.000008 12.047680 -1.054067
				CHANNELS 3 Zrotation Yrotation Xrotation
				JOINT Spine3
				{
					OFFSET 0.000005 12.093728 0.000015
					CHANNELS 3 Zrotation Yrotation Xrotation
					JOINT Neck
					{
						OFFSET -0.000051 15.549085 1.554887
						CHANNELS 3 Zrotation Yrotation Xrotation
						JOINT Neck1
						{
							OFFSET 0.000054 4.687355 0.410102
							CHANNELS 3 Zrotation Yrotation Xrotation
							JOINT Head
							{
								OFFSET 0.000082 4.633768 0.817080
								CHANNELS 3 Zrotation Yrotation Xrotation
								JOINT HeadEnd
								{
									OFFSET 0.000022 9.727753 -0.000033
									CHANNELS 3 Zrotation Yrotation Xrotation
									End Site
									{
										OFFSET 0.000000 0.000000 0.000000
									}
								}
							}
						}
					}
					JOINT RightShoulder
					{
						OFFSET 0.000040 11.106496 6.072605
						CHANNELS 3 Zrotation Yrotation Xrotation
						JOINT RightArm
						{
							OFFSET -19.427918 0.000080 0.000009
							CHANNELS 3 Zrotation Yrotation Xrotation
							JOINT RightForeArm
							{
								OFFSET -29.350708 -0.000008 0.000010
								CHANNELS 3 Zrotation Yrotation Xrotation
								JOINT RightHand
								{
									OFFSET -27.018055 -0.000019 0.000053
									CHANNELS 3 Zrotation Yrotation Xrotation
									JOINT RightHandMiddle1
									{
										OFFSET -9.244032 -0.000030 0.000030
										CHANNELS 3 Zrotation Yrotation Xrotation
										JOINT RightHandMiddle2
										{
											OFFSET -4.870022 -0.000005 -0.000015
											CHANNELS 3 Zrotation Yrotation Xrotation
											JOINT RightHandMiddle3
											{
												OFFSET -3.169068 -0.000001 0.000022
												CHANNELS 3 Zrotation Yrotation Xrotation
												JOINT RightHandMiddle4
												{
													OFFSET -1.888363 -0.000006 0.000008
													CHANNELS 3 Zrotation Yrotation Xrotation
													End Site
													{
														OFFSET 0.000000 0.000000 0.000000
													}
												}
											}
										}
									}
									JOINT RightHandRing
									{
										OFFSET -0.250020 -0.250013 -0.956450
										CHANNELS 3 Zrotation Yrotation Xrotation
										JOINT RightHandRing1
										{
											OFFSET -8.140231 -0.000014 -0.734619
											CHANNELS 3 Zrotation Yrotation Xrotation
											JOINT RightHandRing2
											{
												OFFSET -4.501556 -0.000022 -0.406249
												CHANNELS 3 Zrotation Yrotation Xrotation
												JOINT RightHandRing3
												{
													OFFSET -3.068841 0.000016 -0.276962
													CHANNELS 3 Zrotation Yrotation Xrotation
													JOINT RightHandRing4
													{
														OFFSET -1.869938 -0.000021 -0.168774
														CHANNELS 3 Zrotation Yrotation Xrotation
														End Site
														{
															OFFSET 0.000000 0.000000 0.000000
														}
													}
												}
											}
										}
										JOINT RightHandPinky
										{
											OFFSET -0.163049 -0.249986 -0.975110
											CHANNELS 3 Zrotation Yrotation Xrotation
											JOINT RightHandPinky1
											{
												OFFSET -6.681433 0.000024 -1.494114
												CHANNELS 3 Zrotation Yrotation Xrotation
												JOINT RightHandPinky2
												{
													OFFSET -3.580951 -0.000001 -0.800812
													CHANNELS 3 Zrotation Yrotation Xrotation
													JOINT RightHandPinky3
													{
														OFFSET -2.276523 -0.000028 -0.509087
														CHANNELS 3 Zrotation Yrotation Xrotation
														JOINT RightHandPinky4
														{
															OFFSET -1.690350 -0.000031 -0.377982
															CHANNELS 3 Zrotation Yrotation Xrotation
															End Site
															{
																OFFSET 0.000000 0.000000 0.000000
															}
														}
													}
												}
											}
										}
									}
									JOINT RightHandIndex
									{
										OFFSET -0.250002 -0.250007 0.956492
										CHANNELS 3 Zrotation Yrotation Xrotation
										JOINT RightHandIndex1
										{
											OFFSET -8.934102 0.000046 0.806269
											CHANNELS 3 Zrotation Yrotation Xrotation
											JOINT RightHandIndex2
											{
												OFFSET -4.694651 -0.000030 0.423707
												CHANNELS 3 Zrotation Yrotation Xrotation
												JOINT RightHandIndex3
												{
													OFFSET -2.811719 0.000009 0.253759
													CHANNELS 3 Zrotation Yrotation Xrotation
													JOINT RightHandIndex4
													{
														OFFSET -1.709923 -0.000023 0.154299
														CHANNELS 3 Zrotation Yrotation Xrotation
														End Site
														{
															OFFSET 0.000000 0.000000 0.000000
														}
													}
												}
											}
										}
										JOINT RightHandThumb1
										{
											OFFSET -0.163002 -0.750040 0.975090
											CHANNELS 3 Zrotation Yrotation Xrotation
											JOINT RightHandThumb2
											{
												OFFSET -5.411669 0.835518 2.244671
												CHANNELS 3 Zrotation Yrotation Xrotation
												JOINT RightHandThumb3
												{
													OFFSET -3.567123 0.550751 1.479601
													CHANNELS 3 Zrotation Yrotation Xrotation
													JOINT RightHandThumb4
													{
														OFFSET -2.150527 0.332043 0.892044
														CHANNELS 3 Zrotation Yrotation Xrotation
														End Site
														{
															OFFSET 0.000000 0.000000 0.000000
														}
													}
												}
											}
										}
									}
								}
							}
						}
					}
					JOINT LeftShoulder
					{
						OFFSET 0.000025 11.106492 6.072675
						CHANNELS 3 Zrotation Yrotation Xrotation
						JOINT LeftArm
						{
							OFFSET 19.427847 -0.000013 -0.000043
							CHANNELS 3 Zrotation Yrotation Xrotation
							JOINT LeftForeArm
							{
								OFFSET 29.350741 0.000052 0.000027
								CHANNELS 3 Zrotation Yrotation Xrotation
								JOINT LeftHand
								{
									OFFSET 27.018038 -0.000030 -0.000007
									CHANNELS 3 Zrotation Yrotation Xrotation
									JOINT LeftHandMiddle1
									{
										OFFSET 9.402647 0.000029 -0.000020
										CHANNELS 3 Zrotation Yrotation Xrotation
										JOINT LeftHandMiddle2
										{
											OFFSET 4.950125 -0.000006 0.000000
											CHANNELS 3 Zrotation Yrotation Xrotation
											JOINT LeftHandMiddle3
											{
												OFFSET 3.211963 -0.000013 0.000000
												CHANNELS 3 Zrotation Yrotation Xrotation
												JOINT LeftHandMiddle4
												{
													OFFSET 1.927613 -0.000007 -0.000005
													CHANNELS 3 Zrotation Yrotation Xrotation
													End Site
													{
														OFFSET 0.000000 0.000000 0.000000
													}
												}
											}
										}
									}
									JOINT LeftHandRing
									{
										OFFSET 0.249978 -0.250030 -0.906130
										CHANNELS 3 Zrotation Yrotation Xrotation
										JOINT LeftHandRing1
										{
											OFFSET 8.286079 -0.000004 -0.747785
											CHANNELS 3 Zrotation Yrotation Xrotation
											JOINT LeftHandRing2
											{
												OFFSET 4.585517 0.000004 -0.413812
												CHANNELS 3 Zrotation Yrotation Xrotation
												JOINT LeftHandRing3
												{
													OFFSET 3.124448 -0.000013 -0.281940
													CHANNELS 3 Zrotation Yrotation Xrotation
													JOINT LeftHandRing4
													{
														OFFSET 1.908770 -0.000014 -0.172248
														CHANNELS 3 Zrotation Yrotation Xrotation
														End Site
														{
															OFFSET 0.000000 0.000000 0.000000
														}
													}
												}
											}
										}
										JOINT LeftHandPinky
										{
											OFFSET 0.167510 -0.249995 -0.924936
											CHANNELS 3 Zrotation Yrotation Xrotation
											JOINT LeftHandPinky1
											{
												OFFSET 6.823514 0.000018 -1.525867
												CHANNELS 3 Zrotation Yrotation Xrotation
												JOINT LeftHandPinky2
												{
													OFFSET 3.642818 -0.000032 -0.814608
													CHANNELS 3 Zrotation Yrotation Xrotation
													JOINT LeftHandPinky3
													{
														OFFSET 2.333102 0.000012 -0.521773
														CHANNELS 3 Zrotation Yrotation Xrotation
														JOINT LeftHandPinky4
														{
															OFFSET 1.725431 0.000014 -0.385872
															CHANNELS 3 Zrotation Yrotation Xrotation
															End Site
															{
																OFFSET 0.000000 0.000000 0.000000
															}
														}
													}
												}
											}
										}
									}
									JOINT LeftHandIndex
									{
										OFFSET 0.249980 -0.249988 0.906155
										CHANNELS 3 Zrotation Yrotation Xrotation
										JOINT LeftHandIndex1
										{
											OFFSET 9.087951 -0.000020 0.820175
											CHANNELS 3 Zrotation Yrotation Xrotation
											JOINT LeftHandIndex2
											{
												OFFSET 4.776549 -0.000022 0.431053
												CHANNELS 3 Zrotation Yrotation Xrotation
												JOINT LeftHandIndex3
												{
													OFFSET 2.865125 -0.000008 0.258594
													CHANNELS 3 Zrotation Yrotation Xrotation
													JOINT LeftHandIndex4
													{
														OFFSET 1.745456 0.000002 0.157485
														CHANNELS 3 Zrotation Yrotation Xrotation
														End Site
														{
															OFFSET 0.000000 0.000000 0.000000
														}
													}
												}
											}
										}
										JOINT LeftHandThumb1
										{
											OFFSET 0.167561 -0.749964 0.924971
											CHANNELS 3 Zrotation Yrotation Xrotation
											JOINT LeftHandThumb2
											{
												OFFSET 5.551492 0.857121 2.302660
												CHANNELS 3 Zrotation Yrotation Xrotation
												JOINT LeftHandThumb3
												{
													OFFSET 3.625632 0.559748 1.503894
													CHANNELS 3 Zrotation Yrotation Xrotation
													JOINT LeftHandThumb4
													{
														OFFSET 2.195254 0.338934 0.910573
														CHANNELS 3 Zrotation Yrotation Xrotation
														End Site
														{
															OFFSET 0.000000 0.000000 0.000000
														}
													}
												}
											}
										}
									}
								}
							}
						}
					}
				}
			}
		}
	}
	JOINT RightUpLeg
	{
		OFFSET -8.786529 0.000027 0.000018
		CHANNELS 3 Zrotation Yrotation Xrotation
		JOINT RightLeg
		{
			OFFSET -0.000085 -42.170395 -0.000081
			CHANNELS 3 Zrotation Yrotation Xrotation
			JOINT RightFoot
			{
				OFFSET 0.000051 -45.949152 0.000025
				CHANNELS 3 Zrotation Yrotation Xrotation
				JOINT RightForeFoot
				{
					OFFSET -0.000012 -4.685838 0.000005
					CHANNELS 3 Zrotation Yrotation Xrotation
					JOINT RightToeBase
					{
						OFFSET -0.000056 0.000007 18.351115
						CHANNELS 3 Zrotation Yrotation Xrotation
						JOINT RightToeBaseEnd
						{
							OFFSET 0.000039 0.000007 6.416917
							CHANNELS 3 Zrotation Yrotation Xrotation
							End Site
							{
								OFFSET 0.000000 0.000000 0.000000
							}
						}
					}
				}
			}
		}
	}
	JOINT LeftUpLeg
	{
		OFFSET 8.786566 -0.000034 -0.000019
		CHANNELS 3 Zrotation Yrotation Xrotation
		JOINT LeftLeg
		{
			OFFSET 0.000027 -42.170419 0.000046
			CHANNELS 3 Zrotation Yrotation Xrotation
			JOINT LeftFoot
			{
				OFFSET 0.000021 -45.949198 0.000014
				CHANNELS 3 Zrotation Yrotation Xrotation
				JOINT LeftForeFoot
				{
					OFFSET 0.000036 -4.685866 0.000038
					CHANNELS 3 Zrotation Yrotation Xrotation
					JOINT LeftToeBase
					{
						OFFSET 0.000045 -0.000047 18.351047
						CHANNELS 3 Zrotation Yrotation Xrotation
						JOINT LeftToeBaseEnd
						{
							OFFSET 0.000003 -0.000011 7.522032
							CHANNELS 3 Zrotation Yrotation Xrotation
							End Site
							{
								OFFSET 0.000000 0.000000 0.000000
							}
						}
					}
				}
			}
		}
	}
}
MOTION
Frames: 4
Frame Time: 0.066667
-3.536723 1.218618 0.195575 2.146853 16.974297 -0.280735 0.325301 -0.287912 4.185052 -0.103604 -0.024758 -1.938646 -0.603789 0.363031 -0.194373 0.740264 0.615380 6.992607 5.425523 -2.107914 1.968099 -12.837992 2.396555 3.497185 -5.089299 0.982714 2.117766 0.000814 0.000330 0.001647 11.825134 -9.666023 -2.010896 63.848644 -4.336683 25.681917 179.995453 63.620987 144.550842 -2.200083 -15.490776 -0.002098 57.266415 -6.185471 -0.004239 57.560535 -0.000255 0.001001 29.123396 -0.001098 -0.000064 0.001367 -0.000867 0.002555 -2.813558 -1.365624 -2.845499 61.461426 -1.594223 -4.528875 66.979988 3.199383 -4.761028 25.144537 0.487715 -2.196398 0.000501 -0.000483 0.001313 -3.706392 -5.251841 -4.530506 40.224335 8.728941 -8.513901 67.457146 8.011110 -11.923430 45.290810 3.805128 -9.139436 0.001014 0.000750 0.000085 -0.205640 7.952306 -1.823428 42.420464 -17.173141 3.664026 47.416260 -1.690019 3.815284 33.395668 -0.841577 2.846853 0.000278 0.001203 -0.001160 5.935277 2.397991 56.830784 5.530655 -4.606139 1.524281 14.342471 -9.737459 3.427939 0.001771 -0.001027 -0.000869 -15.710964 4.829881 -1.363094 -57.183228 6.567712 24.851992 179.998093 -53.616570 -174.528809 2.909865 21.332525 0.017650 -35.112637 0.918119 0.004297 -34.552372 0.000895 -0.001447 -22.046898 0.000839 0.000088 -0.000298 -0.001030 0.000620 -0.038378 -0.189269 -12.193946 -22.964050 4.116376 -2.011743 -41.193607 -1.274328 -3.408035 -12.026097 -0.116520 -1.077273 -0.000453 0.000615 -0.000328 0.649799 -0.700364 -8.202331 -12.183640 11.732436 -2.644382 -31.178429 -1.827099 -6.642326 -28.293657 -1.534050 -6.083508 0.000130 -0.001742 0.001217 1.516762 -6.821249 -5.643304 -32.446297 8.552785 2.853347 -24.621595 0.464450 2.157137 -13.321104 0.137696 1.191178 -0.000334 0.002626 -0.001452 -9.137694 10.525950 52.248585 0.405422 5.788967 -0.920442 0.000000 0.000000 0.000000 -0.001029 0.001080 -0.000719 -4.603106 -6.992114 10.234066 0.000263 0.000920 -0.050454 -0.000000 -0.000000 -0.000000 -0.000000 -0.000000 -0.000000 -0.000000 0.000000 0.000000 0.000000 0.000000 0.000000 1.410010 -8.140588 6.813974 -0.000946 -0.000517 -1.790858 -0.000000 0.000000 -0.000000 -0.000000 -0.000000 -0.000000 0.000000 0.000000 0.000000 0.000000 0.000000 -0.000000 
-3.639931 1.232687 0.134201 2.182518 16.934113 -0.108970 0.367594 -0.298220 4.165768 -0.085901 -0.035390 -1.945869 -0.586525 0.223312 -0.303790 0.704286 0.587039 6.793865 5.478547 -2.021389 2.130721 -12.757698 2.656304 3.653110 -5.063587 0.993646 2.149019 0.001119 -0.000176 0.001633 11.724068 -9.609468 -1.979431 63.846569 -4.336184 25.483883 179.995316 63.532284 144.101517 -2.398420 -15.293712 0.000899 57.409603 -6.136229 -0.004029 57.140553 -0.000181 0.000709 28.948816 -0.000926 0.000202 0.001068 -0.000376 0.002375 -2.787415 -1.411451 -2.884694 61.779037 -1.467027 -4.542623 66.594513 3.164298 -4.748170 24.969790 0.481356 -2.181807 0.000464 -0.000566 0.000953 -3.694578 -5.290703 -4.449090 40.533279 8.935915 -8.575074 67.285065 7.966929 -11.906736 45.093304 3.776934 -9.108081 0.000758 0.000695 0.000380 -0.175979 7.974369 -1.921216 42.532230 -17.295387 3.668870 47.356457 -1.685377 3.812183 33.221428 -0.835139 2.833367 0.000016 0.000974 -0.001032 5.967748 2.147938 57.106903 5.752846 -4.638853 1.597764 14.417563 -9.786611 3.440854 0.001720 -0.001076 -0.000812 -15.577999 4.724755 -1.325042 -57.299206 6.252751 25.165348 179.997925 -53.543812 -174.524170 2.463213 21.430477 0.014052 -35.028622 0.949141 0.004121 -34.361408 0.001149 -0.001984 -21.932379 0.000909 -0.000027 -0.000191 -0.001121 0.000711 -0.030354 -0.189339 -12.168418 -22.908409 4.117757 -2.006684 -41.104153 -1.268155 -3.401381 -11.920517 -0.114970 -1.067685 -0.000475 0.000613 -0.000174 0.651541 -0.697660 -8.212015 -12.060407 11.759187 -2.618175 -31.144222 -1.824095 -6.635305 -28.247128 -1.529611 -6.075342 0.000207 -0.001549 0.001101 1.515416 -6.824999 -5.636827 -32.455307 8.524220 2.853680 -24.462152 0.457217 2.143206 -13.261399 0.136852 1.185997 -0.000259 0.002193 -0.001356 -9.136013 10.535485 52.222507 0.406882 5.869302 -0.929633 0.000000 0.000000 0.000000 -0.000774 0.000985 -0.000627 -4.565326 -7.053568 10.107583 0.000116 0.000918 -0.145170 -0.000000 -0.000000 -0.000000 -0.000000 -0.000000 -0.000000 -0.000000 0.000000 0.000000 0.000000 0.000000 0.000000 1.357226 -8.149144 6.708031 -0.000774 -0.000873 -1.970258 -0.000000 0.000000 -0.000000 -0.000000 -0.000000 -0.000000 0.000000 0.000000 0.000000 0.000000 0.000000 -0.000000 
-3.743706 1.245037 0.082236 2.210621 16.905039 0.043580 0.401736 -0.308023 4.144069 -0.070492 -0.045140 -1.952278 -0.567800 0.093388 -0.403138 0.682980 0.561638 6.612278 5.532341 -1.954576 2.275921 -12.685332 2.877642 3.787647 -5.039444 1.002570 2.174103 0.001381 -0.000621 0.001623 11.639715 -9.565998 -1.954006 63.842232 -4.342444 25.279829 179.995193 63.442596 143.676682 -2.596875 -15.104677 0.003285 57.583096 -6.079026 -0.003848 56.823479 -0.000127 0.000439 28.819237 -0.000783 0.000422 0.000813 0.000028 0.002211 -2.763881 -1.450235 -2.924621 62.081203 -1.350122 -4.555614 66.317291 3.138581 -4.738927 24.830389 0.476295 -2.170150 0.000432 -0.000631 0.000633 -3.685556 -5.321844 -4.375668 40.810188 9.114583 -8.629502 67.188705 7.939264 -11.896873 44.941372 3.755702 -9.083913 0.000534 0.000642 0.000626 -0.151492 7.993943 -2.011638 42.684795 -17.398041 3.676997 47.336506 -1.683540 3.811422 33.082001 -0.830091 2.822535 -0.000193 0.000778 -0.000906 5.998310 1.926816 57.340553 5.923995 -4.674562 1.652977 14.471095 -9.821073 3.450136 0.001655 -0.001112 -0.000757 -15.460139 4.630014 -1.290797 -57.400410 5.972910 25.436886 179.997742 -53.475975 -174.600571 2.022395 21.525743 0.009802 -34.944611 0.980507 0.003962 -34.187157 0.001373 -0.002447 -21.825483 0.000996 -0.000129 -0.000098 -0.001210 0.000796 -0.020692 -0.189484 -12.143206 -22.863625 4.122223 -2.002580 -40.997494 -1.261207 -3.393598 -11.822812 -0.113512 -1.058799 -0.000485 0.000608 -0.000043 0.653863 -0.690466 -8.217207 -11.951145 11.774859 -2.594919 -31.108156 -1.820995 -6.628035 -28.192816 -1.524316 -6.065514 0.000267 -0.001366 0.001008 1.514610 -6.829110 -5.629963 -32.464142 8.496850 2.854055 -24.326956 0.451047 2.131358 -13.225468 0.136464 1.182909 -0.000196 0.001821 -0.001270 -9.120285 10.517481 52.196175 0.387453 5.952745 -0.930809 0.000000 0.000000 0.000000 -0.000557 0.000890 -0.000560 -4.525852 -7.106754 9.994820 0.000028 0.000906 -0.233421 -0.000000 -0.000000 -0.000000 -0.000000 -0.000000 -0.000000 -0.000000 -0.000000 0.000000 0.000000 0.000000 0.000000 1.317945 -8.163515 6.617721 -0.000609 -0.001172 -2.137048 -0.000000 0.000000 -0.000000 -0.000000 -0.000000 -0.000000 0.000000 -0.000000 0.000000 0.000000 0.000000 -0.000000 
-3.848100 1.255668 0.039669 2.231169 16.887066 0.176955 0.427729 -0.317320 4.119952 -0.057379 -0.054007 -1.957872 -0.547616 -0.026739 -0.492419 0.676346 0.539176 6.447850 5.586907 -1.907470 2.403680 -12.620895 3.060603 3.900906 -5.016869 1.009487 2.193019 0.001600 -0.001004 0.001614 11.572049 -9.535621 -1.934619 63.835636 -4.355467 25.069761 179.995056 63.351948 143.276062 -2.795446 -14.923720 0.005074 57.786922 -6.013821 -0.003694 56.609425 -0.000094 0.000193 28.734673 -0.000668 0.000597 0.000604 0.000344 0.002064 -2.742955 -1.481976 -2.965278 62.368099 -1.243457 -4.567869 66.148087 3.122296 -4.733423 24.726341 0.472534 -2.161439 0.000406 -0.000676 0.000350 -3.679325 -5.345266 -4.310242 41.055035 9.265064 -8.677228 67.167915 7.928137 -11.893907 44.835045 3.741462 -9.067002 0.000341 0.000593 0.000826 -0.132180 8.011031 -2.094695 42.878216 -17.481041 3.688400 47.356377 -1.684509 3.813003 32.977444 -0.826436 2.814375 -0.000350 0.000613 -0.000783 6.026962 1.734638 57.531670 6.044101 -4.713307 1.689932 14.503066 -9.840869 3.455791 0.001579 -0.001133 -0.000703 -15.357377 4.545667 -1.260361 -57.486885 5.728200 25.666294 179.997559 -53.413055 -174.757874 1.587488 21.618361 0.004910 -34.860592 1.012218 0.003820 -34.029579 0.001566 -0.002838 -21.726223 0.001102 -0.000218 -0.000018 -0.001297 0.000873 -0.009390 -0.189702 -12.118312 -22.829685 4.129777 -1.999430 -40.873615 -1.253482 -3.384681 -11.732983 -0.112147 -1.050617 -0.000483 0.000601 0.000063 0.656765 -0.678783 -8.217908 -11.855863 11.779467 -2.574620 -31.070215 -1.817798 -6.620516 -28.130713 -1.518163 -6.054017 0.000310 -0.001192 0.000936 1.514344 -6.833584 -5.622714 -32.472797 8.470666 2.854471 -24.215986 0.445942 2.121598 -13.213314 0.136533 1.181917 -0.000144 0.001508 -0.001193 -9.090525 10.471938 52.169571 0.347129 6.039300 -0.923972 0.000000 0.000000 0.000000 -0.000377 0.000796 -0.000516 -4.484681 -7.151671 9.895773 -0.000002 0.000883 -0.315201 -0.000000 -0.000000 -0.000000 -0.000000 -0.000000 -0.000000 -0.000000 -0.000000 0.000000 0.000000 0.000000 0.000000 1.292162 -8.183700 6.543074 -0.000452 -0.001415 -2.291234 -0.000000 0.000000 -0.000000 -0.000000 -0.000000 -0.000000 0.000000 -0.000000 0.000000 0.000000 0.000000 -0.000000 
